<mxfile host="Electron" agent="Mozilla/5.0 (Windows NT 10.0; Win64; x64) AppleWebKit/537.36 (KHTML, like Gecko) draw.io/24.7.5 Chrome/126.0.6478.183 Electron/31.3.0 Safari/537.36" version="24.7.5">
  <diagram name="é¡µ-1" id="Page-1">
    <mxGraphModel dx="1050" dy="717" grid="1" gridSize="10" guides="1" tooltips="1" connect="1" arrows="1" fold="1" page="1" pageScale="1" pageWidth="827" pageHeight="1169" math="0" shadow="0">
      <root>
        <mxCell id="0" />
        <mxCell id="1" parent="0" />
        <mxCell id="drlmMoSwprQZvzVxRZc4-89" style="edgeStyle=orthogonalEdgeStyle;rounded=0;orthogonalLoop=1;jettySize=auto;html=1;exitX=1;exitY=0.5;exitDx=0;exitDy=0;entryX=0;entryY=0.5;entryDx=0;entryDy=0;endArrow=open;endFill=0;" edge="1" parent="1" source="drlmMoSwprQZvzVxRZc4-78" target="drlmMoSwprQZvzVxRZc4-79">
          <mxGeometry relative="1" as="geometry" />
        </mxCell>
        <mxCell id="drlmMoSwprQZvzVxRZc4-90" style="edgeStyle=orthogonalEdgeStyle;rounded=0;orthogonalLoop=1;jettySize=auto;html=1;exitX=1;exitY=0.5;exitDx=0;exitDy=0;entryX=0;entryY=0.5;entryDx=0;entryDy=0;endArrow=open;endFill=0;" edge="1" parent="1" source="drlmMoSwprQZvzVxRZc4-78" target="drlmMoSwprQZvzVxRZc4-80">
          <mxGeometry relative="1" as="geometry" />
        </mxCell>
        <mxCell id="drlmMoSwprQZvzVxRZc4-91" style="edgeStyle=orthogonalEdgeStyle;rounded=0;orthogonalLoop=1;jettySize=auto;html=1;exitX=1;exitY=0.5;exitDx=0;exitDy=0;entryX=0;entryY=0.5;entryDx=0;entryDy=0;endArrow=open;endFill=0;" edge="1" parent="1" source="drlmMoSwprQZvzVxRZc4-78" target="drlmMoSwprQZvzVxRZc4-82">
          <mxGeometry relative="1" as="geometry" />
        </mxCell>
        <mxCell id="drlmMoSwprQZvzVxRZc4-92" style="edgeStyle=orthogonalEdgeStyle;rounded=0;orthogonalLoop=1;jettySize=auto;html=1;exitX=1;exitY=0.5;exitDx=0;exitDy=0;entryX=0;entryY=0.5;entryDx=0;entryDy=0;endArrow=open;endFill=0;" edge="1" parent="1" source="drlmMoSwprQZvzVxRZc4-78" target="drlmMoSwprQZvzVxRZc4-86">
          <mxGeometry relative="1" as="geometry" />
        </mxCell>
        <mxCell id="drlmMoSwprQZvzVxRZc4-93" style="edgeStyle=orthogonalEdgeStyle;rounded=0;orthogonalLoop=1;jettySize=auto;html=1;exitX=1;exitY=0.5;exitDx=0;exitDy=0;entryX=0;entryY=0.5;entryDx=0;entryDy=0;endArrow=open;endFill=0;" edge="1" parent="1" source="drlmMoSwprQZvzVxRZc4-78" target="drlmMoSwprQZvzVxRZc4-87">
          <mxGeometry relative="1" as="geometry" />
        </mxCell>
        <mxCell id="drlmMoSwprQZvzVxRZc4-94" style="edgeStyle=orthogonalEdgeStyle;rounded=0;orthogonalLoop=1;jettySize=auto;html=1;exitX=1;exitY=0.5;exitDx=0;exitDy=0;entryX=0;entryY=0.5;entryDx=0;entryDy=0;endArrow=open;endFill=0;" edge="1" parent="1" source="drlmMoSwprQZvzVxRZc4-78" target="drlmMoSwprQZvzVxRZc4-84">
          <mxGeometry relative="1" as="geometry" />
        </mxCell>
        <mxCell id="drlmMoSwprQZvzVxRZc4-95" style="edgeStyle=orthogonalEdgeStyle;rounded=0;orthogonalLoop=1;jettySize=auto;html=1;exitX=1;exitY=0.5;exitDx=0;exitDy=0;entryX=0;entryY=0.5;entryDx=0;entryDy=0;endArrow=open;endFill=0;" edge="1" parent="1" source="drlmMoSwprQZvzVxRZc4-78" target="drlmMoSwprQZvzVxRZc4-88">
          <mxGeometry relative="1" as="geometry" />
        </mxCell>
        <mxCell id="drlmMoSwprQZvzVxRZc4-78" value="&lt;font face=&quot;Lucida Console&quot; style=&quot;font-size: 18px;&quot;&gt;rescode&lt;/font&gt;" style="rounded=0;whiteSpace=wrap;html=1;fillColor=#d5e8d4;strokeColor=#82b366;" vertex="1" parent="1">
          <mxGeometry x="80" y="739" width="120" height="40" as="geometry" />
        </mxCell>
        <mxCell id="drlmMoSwprQZvzVxRZc4-79" value="&lt;span style=&quot;font-family: &amp;quot;Lucida Console&amp;quot;;&quot;&gt;&lt;font style=&quot;font-size: 18px;&quot;&gt;satexclude&lt;/font&gt;&lt;/span&gt;" style="rounded=0;whiteSpace=wrap;html=1;fillColor=#dae8fc;strokeColor=#6c8ebf;" vertex="1" parent="1">
          <mxGeometry x="280" y="559" width="120" height="40" as="geometry" />
        </mxCell>
        <mxCell id="drlmMoSwprQZvzVxRZc4-80" value="&lt;span style=&quot;font-family: &amp;quot;Lucida Console&amp;quot;;&quot;&gt;&lt;font style=&quot;font-size: 18px;&quot;&gt;geodist&lt;/font&gt;&lt;/span&gt;" style="rounded=0;whiteSpace=wrap;html=1;fillColor=#dae8fc;strokeColor=#6c8ebf;" vertex="1" parent="1">
          <mxGeometry x="280" y="619" width="120" height="40" as="geometry" />
        </mxCell>
        <mxCell id="drlmMoSwprQZvzVxRZc4-81" value="&lt;span style=&quot;font-family: &amp;quot;Lucida Console&amp;quot;;&quot;&gt;&lt;font style=&quot;font-size: 18px;&quot;&gt;satazel&lt;/font&gt;&lt;/span&gt;" style="rounded=0;whiteSpace=wrap;html=1;fillColor=#dae8fc;strokeColor=#6c8ebf;" vertex="1" parent="1">
          <mxGeometry x="400" y="619" width="120" height="40" as="geometry" />
        </mxCell>
        <mxCell id="drlmMoSwprQZvzVxRZc4-96" style="edgeStyle=orthogonalEdgeStyle;rounded=0;orthogonalLoop=1;jettySize=auto;html=1;exitX=1;exitY=0.5;exitDx=0;exitDy=0;entryX=0;entryY=0.5;entryDx=0;entryDy=0;endArrow=open;endFill=0;" edge="1" parent="1" source="drlmMoSwprQZvzVxRZc4-82" target="drlmMoSwprQZvzVxRZc4-83">
          <mxGeometry relative="1" as="geometry" />
        </mxCell>
        <mxCell id="drlmMoSwprQZvzVxRZc4-82" value="&lt;span style=&quot;font-family: &amp;quot;Lucida Console&amp;quot;;&quot;&gt;&lt;font style=&quot;font-size: 18px;&quot;&gt;snrmask&lt;/font&gt;&lt;/span&gt;" style="rounded=0;whiteSpace=wrap;html=1;fillColor=#f5f5f5;strokeColor=#666666;fontColor=#333333;" vertex="1" parent="1">
          <mxGeometry x="280" y="679" width="120" height="40" as="geometry" />
        </mxCell>
        <mxCell id="drlmMoSwprQZvzVxRZc4-83" value="&lt;span style=&quot;font-family: &amp;quot;Lucida Console&amp;quot;; font-size: 18px;&quot;&gt;&lt;font style=&quot;font-size: 18px;&quot;&gt;testsnr&lt;/font&gt;&lt;/span&gt;" style="rounded=0;whiteSpace=wrap;html=1;fillColor=#dae8fc;strokeColor=#6c8ebf;fontSize=18;" vertex="1" parent="1">
          <mxGeometry x="440" y="679" width="120" height="40" as="geometry" />
        </mxCell>
        <mxCell id="drlmMoSwprQZvzVxRZc4-105" style="edgeStyle=orthogonalEdgeStyle;rounded=0;orthogonalLoop=1;jettySize=auto;html=1;exitX=1;exitY=0.5;exitDx=0;exitDy=0;entryX=0;entryY=0.5;entryDx=0;entryDy=0;endArrow=open;endFill=0;" edge="1" parent="1" source="drlmMoSwprQZvzVxRZc4-84" target="drlmMoSwprQZvzVxRZc4-99">
          <mxGeometry relative="1" as="geometry" />
        </mxCell>
        <mxCell id="drlmMoSwprQZvzVxRZc4-84" value="&lt;span style=&quot;font-family: &amp;quot;Lucida Console&amp;quot;;&quot;&gt;&lt;font style=&quot;font-size: 18px;&quot;&gt;ionocorr&lt;/font&gt;&lt;/span&gt;" style="rounded=0;whiteSpace=wrap;html=1;fillColor=#f5f5f5;strokeColor=#666666;fontColor=#333333;" vertex="1" parent="1">
          <mxGeometry x="280" y="859" width="120" height="40" as="geometry" />
        </mxCell>
        <mxCell id="drlmMoSwprQZvzVxRZc4-85" value="&lt;font style=&quot;font-size: 18px;&quot; face=&quot;Lucida Console&quot;&gt;sat2freq&lt;/font&gt;" style="rounded=0;whiteSpace=wrap;html=1;fillColor=#f5f5f5;strokeColor=#666666;fontColor=#333333;" vertex="1" parent="1">
          <mxGeometry x="400" y="559" width="120" height="40" as="geometry" />
        </mxCell>
        <mxCell id="drlmMoSwprQZvzVxRZc4-104" style="edgeStyle=orthogonalEdgeStyle;rounded=0;orthogonalLoop=1;jettySize=auto;html=1;exitX=1;exitY=0.5;exitDx=0;exitDy=0;entryX=0;entryY=0.5;entryDx=0;entryDy=0;endArrow=open;endFill=0;" edge="1" parent="1" source="drlmMoSwprQZvzVxRZc4-86" target="drlmMoSwprQZvzVxRZc4-97">
          <mxGeometry relative="1" as="geometry" />
        </mxCell>
        <mxCell id="drlmMoSwprQZvzVxRZc4-86" value="&lt;span style=&quot;font-family: &amp;quot;Lucida Console&amp;quot;;&quot;&gt;&lt;font style=&quot;font-size: 18px;&quot;&gt;prange&lt;/font&gt;&lt;/span&gt;" style="rounded=0;whiteSpace=wrap;html=1;fillColor=#dae8fc;strokeColor=#6c8ebf;" vertex="1" parent="1">
          <mxGeometry x="280" y="739" width="120" height="40" as="geometry" />
        </mxCell>
        <mxCell id="drlmMoSwprQZvzVxRZc4-87" value="&lt;span style=&quot;font-family: &amp;quot;Lucida Console&amp;quot;;&quot;&gt;&lt;font style=&quot;font-size: 18px;&quot;&gt;varerr&lt;/font&gt;&lt;/span&gt;" style="rounded=0;whiteSpace=wrap;html=1;fillColor=#dae8fc;strokeColor=#6c8ebf;" vertex="1" parent="1">
          <mxGeometry x="280" y="799" width="120" height="40" as="geometry" />
        </mxCell>
        <mxCell id="drlmMoSwprQZvzVxRZc4-106" style="edgeStyle=orthogonalEdgeStyle;rounded=0;orthogonalLoop=1;jettySize=auto;html=1;exitX=1;exitY=0.5;exitDx=0;exitDy=0;entryX=0;entryY=0.5;entryDx=0;entryDy=0;endArrow=open;endFill=0;" edge="1" parent="1" source="drlmMoSwprQZvzVxRZc4-88" target="drlmMoSwprQZvzVxRZc4-101">
          <mxGeometry relative="1" as="geometry" />
        </mxCell>
        <mxCell id="drlmMoSwprQZvzVxRZc4-88" value="&lt;span style=&quot;font-family: &amp;quot;Lucida Console&amp;quot;;&quot;&gt;&lt;font style=&quot;font-size: 18px;&quot;&gt;tropcorr&lt;/font&gt;&lt;/span&gt;" style="rounded=0;whiteSpace=wrap;html=1;fillColor=#f5f5f5;strokeColor=#666666;fontColor=#333333;" vertex="1" parent="1">
          <mxGeometry x="280" y="919" width="120" height="40" as="geometry" />
        </mxCell>
        <mxCell id="drlmMoSwprQZvzVxRZc4-97" value="&lt;span style=&quot;font-size: 18px;&quot;&gt;&lt;font face=&quot;Lucida Console&quot;&gt;getseleph&lt;/font&gt;&lt;/span&gt;" style="rounded=0;whiteSpace=wrap;html=1;fillColor=#f5f5f5;strokeColor=#666666;fontColor=#333333;fontSize=18;" vertex="1" parent="1">
          <mxGeometry x="440" y="739" width="120" height="40" as="geometry" />
        </mxCell>
        <mxCell id="drlmMoSwprQZvzVxRZc4-98" value="&lt;span style=&quot;font-family: &amp;quot;Lucida Console&amp;quot;; font-size: 18px;&quot;&gt;gettgd&lt;/span&gt;" style="rounded=0;whiteSpace=wrap;html=1;fillColor=#f5f5f5;strokeColor=#666666;fontColor=#333333;fontSize=18;" vertex="1" parent="1">
          <mxGeometry x="560" y="739" width="120" height="40" as="geometry" />
        </mxCell>
        <mxCell id="drlmMoSwprQZvzVxRZc4-99" value="&lt;span style=&quot;color: rgb(0, 0, 0); font-family: &amp;quot;Lucida Console&amp;quot;; font-size: 18px;&quot;&gt;ionmodel&lt;/span&gt;" style="rounded=0;whiteSpace=wrap;html=1;fillColor=#f5f5f5;strokeColor=#666666;fontColor=#333333;fontSize=18;" vertex="1" parent="1">
          <mxGeometry x="440" y="859" width="120" height="40" as="geometry" />
        </mxCell>
        <mxCell id="drlmMoSwprQZvzVxRZc4-100" value="&lt;span style=&quot;color: rgb(0, 0, 0); font-family: &amp;quot;Lucida Console&amp;quot;; font-size: 18px;&quot;&gt;sbsioncorr&lt;/span&gt;" style="rounded=0;whiteSpace=wrap;html=1;fillColor=#f5f5f5;strokeColor=#666666;fontColor=#333333;fontSize=18;" vertex="1" parent="1">
          <mxGeometry x="560" y="859" width="120" height="40" as="geometry" />
        </mxCell>
        <mxCell id="drlmMoSwprQZvzVxRZc4-101" value="&lt;span style=&quot;color: rgb(0, 0, 0); font-family: &amp;quot;Lucida Console&amp;quot;; font-size: 18px;&quot;&gt;tropmodel&lt;/span&gt;" style="rounded=0;whiteSpace=wrap;html=1;fillColor=#f5f5f5;strokeColor=#666666;fontColor=#333333;fontSize=18;" vertex="1" parent="1">
          <mxGeometry x="440" y="919" width="120" height="40" as="geometry" />
        </mxCell>
        <mxCell id="drlmMoSwprQZvzVxRZc4-102" value="&lt;span style=&quot;color: rgb(0, 0, 0); font-family: &amp;quot;Lucida Console&amp;quot;; font-size: 18px;&quot;&gt;sbstropcorr&lt;/span&gt;" style="rounded=0;whiteSpace=wrap;html=1;fillColor=#f5f5f5;strokeColor=#666666;fontColor=#333333;fontSize=18;" vertex="1" parent="1">
          <mxGeometry x="560" y="919" width="120" height="40" as="geometry" />
        </mxCell>
        <mxCell id="drlmMoSwprQZvzVxRZc4-103" value="&lt;span style=&quot;color: rgb(0, 0, 0); font-family: &amp;quot;Lucida Console&amp;quot;; font-size: 18px;&quot;&gt;iontec&lt;/span&gt;" style="rounded=0;whiteSpace=wrap;html=1;fillColor=#f5f5f5;strokeColor=#666666;fontColor=#333333;fontSize=18;" vertex="1" parent="1">
          <mxGeometry x="680" y="859" width="120" height="40" as="geometry" />
        </mxCell>
      </root>
    </mxGraphModel>
  </diagram>
</mxfile>
